<svg width="3500" height="1000" viewBox="0 0 3500 1000" fill="none" xmlns="http://www.w3.org/2000/svg">
<path fill-rule="evenodd" clip-rule="evenodd" d="M236.108 519.867C277.22 547.338 325.555 562 375 562C399.723 562 423.89 569.331 444.446 583.066C465.003 596.802 481.024 616.324 490.485 639.165C499.946 662.005 502.421 687.139 497.598 711.386C492.775 735.634 480.87 757.907 463.389 775.388C445.907 792.87 423.634 804.775 399.387 809.598C375.139 814.421 350.006 811.946 327.165 802.485C304.324 793.024 284.802 777.003 271.067 756.447C257.331 735.89 250 711.723 250 687L125 687.001C125 736.446 139.663 784.781 167.133 825.893C194.603 867.005 233.648 899.048 279.33 917.97C325.011 936.892 375.278 941.843 423.773 932.196C472.268 922.55 516.814 898.74 551.777 863.777C586.74 828.813 610.55 784.268 620.196 735.773C629.843 687.277 624.892 637.011 605.97 591.329C587.048 545.648 555.005 506.603 513.893 479.133C472.78 451.662 424.445 437 375 437C350.277 437 326.11 429.669 305.554 415.934C284.998 402.199 268.976 382.676 259.515 359.836C250.054 336.995 247.579 311.861 252.402 287.614C257.225 263.366 269.13 241.093 286.612 223.612C304.093 206.13 326.366 194.225 350.614 189.402C374.861 184.579 399.995 187.054 422.836 196.515C445.676 205.976 465.199 221.998 478.934 242.554C492.669 263.11 500 287.277 500 312L625 312C625 262.555 610.338 214.22 582.868 173.108C555.397 131.995 516.353 99.9522 470.671 81.0302C424.989 62.1083 374.723 57.1575 326.228 66.8038C277.732 76.4501 233.187 100.26 198.223 135.223C163.26 170.187 139.45 214.732 129.804 263.228C120.157 311.723 125.108 361.989 144.03 407.671C162.952 453.352 194.995 492.397 236.108 519.867Z" fill="#F5F5F5"/>
<path fill-rule="evenodd" clip-rule="evenodd" d="M675 62H800V437H1050V62H1175V437H1225V562H1175V937H1050V562H800V937H675V62Z" fill="#F5F5F5"/>
<path fill-rule="evenodd" clip-rule="evenodd" d="M1225 312C1225 262.555 1239.66 214.22 1267.13 173.108C1294.6 131.995 1333.65 99.9521 1379.33 81.0302C1425.01 62.1083 1475.28 57.1575 1523.77 66.8038C1572.27 76.4501 1616.81 100.26 1651.78 135.223C1686.74 170.187 1710.55 214.732 1720.2 263.228C1729.84 311.723 1724.89 361.99 1705.97 407.671C1687.05 453.353 1655 492.397 1613.89 519.868C1572.78 547.338 1524.45 562 1475 562H1350V937H1225V312ZM1350 437H1475C1499.72 437 1523.89 429.669 1544.45 415.934C1565 402.199 1581.02 382.676 1590.48 359.836C1599.95 336.995 1602.42 311.861 1597.6 287.614C1592.78 263.366 1580.87 241.093 1563.39 223.612C1545.91 206.13 1523.63 194.225 1499.39 189.402C1475.14 184.579 1450.01 187.054 1427.16 196.515C1404.32 205.976 1384.8 221.998 1371.07 242.554C1357.33 263.11 1350 287.277 1350 312V437Z" fill="#F5F5F5"/>
<path fill-rule="evenodd" clip-rule="evenodd" d="M1900 62H1775V937H1900H2325V812H1900V62Z" fill="#F5F5F5"/>
<path fill-rule="evenodd" clip-rule="evenodd" d="M2398.22 135.223C2351.34 182.107 2325 245.696 2325 312V937H2450V562H2700V937H2825V312L2700 312L2825 312C2825 245.696 2798.66 182.107 2751.78 135.223C2704.89 88.3392 2641.3 62 2575 62C2508.7 62 2445.11 88.3392 2398.22 135.223ZM2700 437H2450V312C2450 278.848 2463.17 247.054 2486.61 223.612C2510.05 200.17 2541.85 187 2575 187C2608.15 187 2639.95 200.17 2663.39 223.612C2686.83 247.054 2700 278.848 2700 312V437Z" fill="#F5F5F5"/>
<path fill-rule="evenodd" clip-rule="evenodd" d="M2875 312C2875 262.555 2889.66 214.22 2917.13 173.108C2944.6 131.995 2983.65 99.9521 3029.33 81.0302C3075.01 62.1083 3125.28 57.1575 3173.77 66.8038C3222.27 76.4501 3266.81 100.26 3301.78 135.223C3336.74 170.187 3360.55 214.732 3370.2 263.228C3379.84 311.723 3374.89 361.99 3355.97 407.671C3337.05 453.353 3305 492.397 3263.89 519.868C3222.78 547.338 3174.45 562 3125 562L3000 562V937H2875V312ZM3000 437L3125 437C3149.72 437 3173.89 429.669 3194.45 415.934C3215 402.199 3231.02 382.676 3240.48 359.836C3249.95 336.995 3252.42 311.861 3247.6 287.614C3242.78 263.366 3230.87 241.093 3213.39 223.612C3195.91 206.13 3173.63 194.225 3149.39 189.402C3125.14 184.579 3100.01 187.054 3077.16 196.515C3054.32 205.976 3034.8 221.998 3021.07 242.554C3007.33 263.11 3000 287.277 3000 312V437Z" fill="#F5F5F5"/>
</svg>
