<svg width="1000" height="1000" viewBox="0 0 1000 1000" fill="none" xmlns="http://www.w3.org/2000/svg">
<g clip-path="url(#clip0_959_2)">
<rect width="1000" height="1000" fill="#151515"/>
<rect x="-500" y="500.132" width="1414.4" height="1414.4" transform="rotate(-45 -500 500.132)" fill="url(#paint0_linear_959_2)" fill-opacity="0.5"/>
<g filter="url(#filter0_b_959_2)">
<mask id="path-2-outside-1_959_2" maskUnits="userSpaceOnUse" x="42" y="42" width="979" height="1266" fill="black">
<rect fill="white" x="42" y="42" width="979" height="1266"/>
<path fill-rule="evenodd" clip-rule="evenodd" d="M240.363 377.859C238.115 389.157 237 400.592 237 412V412.101C237.013 434.938 241.497 457.666 250.321 478.97C263.567 510.947 285.997 538.278 314.775 557.507C343.554 576.737 377.388 587 412 587H1000V762H715.109C722.719 775.181 729.489 788.893 735.358 803.061C761.849 867.015 768.78 937.388 755.275 1005.28C741.77 1073.18 708.436 1135.54 659.487 1184.49C610.539 1233.44 548.175 1266.77 480.282 1280.27C412.388 1293.78 342.015 1286.85 278.061 1260.36C214.107 1233.87 159.444 1189.01 120.986 1131.45C82.5271 1073.89 62 1006.22 62 937L62.0001 937L62.0001 412.265C61.9826 389.361 64.2135 366.401 68.7253 343.719C82.2301 275.825 115.564 213.461 164.513 164.513C213.461 115.564 275.825 82.2301 343.719 68.7253C411.612 55.2205 481.985 62.1517 545.939 88.6423C609.893 115.133 664.556 159.993 703.014 217.551C741.473 275.108 762 342.777 762 412L587 412C587 377.388 576.737 343.554 557.507 314.775C538.278 285.997 510.947 263.567 478.97 250.321C446.993 237.076 411.806 233.61 377.859 240.363C343.913 247.115 312.731 263.782 288.256 288.256C263.782 312.731 247.115 343.913 240.363 377.859ZM412 762C350.43 762 290.089 745.761 237 715.109L237 937C237 971.612 247.264 1005.45 266.493 1034.22C285.722 1063 313.053 1085.43 345.03 1098.68C377.007 1111.92 412.194 1115.39 446.141 1108.64C480.087 1101.89 511.269 1085.22 535.744 1060.74C560.218 1036.27 576.885 1005.09 583.637 971.141C590.39 937.194 586.924 902.008 573.679 870.03C560.434 838.053 538.003 810.722 509.225 791.493C480.446 772.264 446.612 762 412 762Z"/>
</mask>
<path fill-rule="evenodd" clip-rule="evenodd" d="M240.363 377.859C238.115 389.157 237 400.592 237 412V412.101C237.013 434.938 241.497 457.666 250.321 478.97C263.567 510.947 285.997 538.278 314.775 557.507C343.554 576.737 377.388 587 412 587H1000V762H715.109C722.719 775.181 729.489 788.893 735.358 803.061C761.849 867.015 768.78 937.388 755.275 1005.28C741.77 1073.18 708.436 1135.54 659.487 1184.49C610.539 1233.44 548.175 1266.77 480.282 1280.27C412.388 1293.78 342.015 1286.85 278.061 1260.36C214.107 1233.87 159.444 1189.01 120.986 1131.45C82.5271 1073.89 62 1006.22 62 937L62.0001 937L62.0001 412.265C61.9826 389.361 64.2135 366.401 68.7253 343.719C82.2301 275.825 115.564 213.461 164.513 164.513C213.461 115.564 275.825 82.2301 343.719 68.7253C411.612 55.2205 481.985 62.1517 545.939 88.6423C609.893 115.133 664.556 159.993 703.014 217.551C741.473 275.108 762 342.777 762 412L587 412C587 377.388 576.737 343.554 557.507 314.775C538.278 285.997 510.947 263.567 478.97 250.321C446.993 237.076 411.806 233.61 377.859 240.363C343.913 247.115 312.731 263.782 288.256 288.256C263.782 312.731 247.115 343.913 240.363 377.859ZM412 762C350.43 762 290.089 745.761 237 715.109L237 937C237 971.612 247.264 1005.45 266.493 1034.22C285.722 1063 313.053 1085.43 345.03 1098.68C377.007 1111.92 412.194 1115.39 446.141 1108.64C480.087 1101.89 511.269 1085.22 535.744 1060.74C560.218 1036.27 576.885 1005.09 583.637 971.141C590.39 937.194 586.924 902.008 573.679 870.03C560.434 838.053 538.003 810.722 509.225 791.493C480.446 772.264 446.612 762 412 762Z" fill="white" fill-opacity="0.01"/>
<path d="M237 412L257 412L257 412L237 412ZM240.363 377.859L259.978 381.761L259.978 381.761L240.363 377.859ZM237 412.101L217 412.101L217 412.113L237 412.101ZM250.321 478.97L231.844 486.623L231.844 486.623L250.321 478.97ZM314.775 557.507L303.664 574.137L303.664 574.137L314.775 557.507ZM1000 587H1020V567H1000V587ZM1000 762V782H1020V762H1000ZM715.109 762V742H680.468L697.789 772L715.109 762ZM735.358 803.061L716.88 810.714L716.88 810.715L735.358 803.061ZM755.275 1005.28L774.891 1009.18L774.891 1009.18L755.275 1005.28ZM278.061 1260.36L285.714 1241.88L285.714 1241.88L278.061 1260.36ZM120.986 1131.45L137.615 1120.34L137.615 1120.34L120.986 1131.45ZM62 937L81.5405 932.737L42 937L62 937ZM62.0001 937L42.4597 941.263L82.0001 937L62.0001 937ZM62.0001 412.265L82.0001 412.265V412.257L82.0001 412.25L62.0001 412.265ZM68.7253 343.719L49.1096 339.817L49.1096 339.817L68.7253 343.719ZM164.513 164.513L150.371 150.371L150.371 150.371L164.513 164.513ZM343.719 68.7253L339.817 49.1096L339.817 49.1096L343.719 68.7253ZM545.939 88.6423L538.286 107.12L538.286 107.12L545.939 88.6423ZM703.014 217.551L719.644 206.439L719.644 206.439L703.014 217.551ZM762 412L762 432L782 432V412H762ZM587 412H567V432L587 432L587 412ZM478.97 250.321L471.316 268.799L471.316 268.799L478.97 250.321ZM288.256 288.256L302.399 302.399L302.399 302.399L288.256 288.256ZM412 762L412 782L412 782L412 762ZM237 715.109L247 697.789L217 680.468L217 715.109L237 715.109ZM237 937L257 937L257 937L237 937ZM266.493 1034.22L249.863 1045.34L249.863 1045.34L266.493 1034.22ZM345.03 1098.68L337.377 1117.16L337.377 1117.16L345.03 1098.68ZM446.141 1108.64L450.043 1128.25L450.043 1128.25L446.141 1108.64ZM535.744 1060.74L549.886 1074.89L549.886 1074.89L535.744 1060.74ZM583.637 971.141L564.022 967.239L564.022 967.239L583.637 971.141ZM573.679 870.03L555.201 877.684L555.201 877.684L573.679 870.03ZM257 412C257 401.896 257.988 391.768 259.978 381.761L220.747 373.958C218.243 386.546 217 399.288 217 412L257 412ZM257 412.101V412H217V412.101H257ZM268.799 471.316C260.983 452.447 257.012 432.317 257 412.089L217 412.113C217.015 437.559 222.011 462.885 231.844 486.623L268.799 471.316ZM325.887 540.878C300.397 523.846 280.53 499.639 268.799 471.316L231.844 486.623C246.603 522.255 271.596 552.71 303.664 574.137L325.887 540.878ZM412 567C381.344 567 351.376 557.91 325.887 540.878L303.664 574.137C335.732 595.564 373.433 607 412 607V567ZM412 607H1000V567H412V607ZM980 587V762H1020V587H980ZM1000 742H715.109V782H1000V742ZM753.835 795.407C747.632 780.43 740.475 765.934 732.43 752L697.789 772C704.964 784.428 711.347 797.356 716.88 810.714L753.835 795.407ZM774.891 1009.18C789.167 937.411 781.84 863.016 753.835 795.407L716.88 810.715C741.857 871.014 748.392 937.366 735.659 1001.38L774.891 1009.18ZM673.629 1198.63C725.375 1146.88 760.614 1080.96 774.891 1009.18L735.659 1001.38C722.926 1065.39 691.496 1124.19 645.345 1170.35L673.629 1198.63ZM484.183 1299.89C555.956 1285.61 621.884 1250.37 673.629 1198.63L645.345 1170.35C599.194 1216.5 540.393 1247.93 476.38 1260.66L484.183 1299.89ZM270.407 1278.84C338.016 1306.84 412.41 1314.17 484.183 1299.89L476.38 1260.66C412.366 1273.39 346.014 1266.86 285.714 1241.88L270.407 1278.84ZM104.356 1142.56C145.012 1203.41 202.798 1250.83 270.407 1278.84L285.714 1241.88C225.415 1216.9 173.876 1174.61 137.615 1120.34L104.356 1142.56ZM42 937C42 1010.18 63.7001 1081.71 104.356 1142.56L137.615 1120.34C101.354 1066.07 82 1002.27 82 937L42 937ZM81.5405 932.737L81.5405 932.737L42.4596 941.263L42.4597 941.263L81.5405 932.737ZM42.0001 412.265L42.0001 937L82.0001 937L82.0001 412.265L42.0001 412.265ZM49.1096 339.817C44.34 363.795 41.9816 388.067 42.0001 412.28L82.0001 412.25C81.9836 390.654 84.0869 369.007 88.341 347.62L49.1096 339.817ZM150.371 150.371C98.6252 202.116 63.3861 268.044 49.1096 339.817L88.341 347.62C101.074 283.607 132.504 224.806 178.655 178.655L150.371 150.371ZM339.817 49.1096C268.044 63.3861 202.116 98.6252 150.371 150.371L178.655 178.655C224.806 132.504 283.607 101.074 347.62 88.341L339.817 49.1096ZM553.593 70.1647C485.984 42.1603 411.59 34.8331 339.817 49.1096L347.62 88.341C411.634 75.6079 477.986 82.143 538.286 107.12L553.593 70.1647ZM719.644 206.439C678.988 145.593 621.202 98.1692 553.593 70.1647L538.286 107.12C598.585 132.097 650.124 174.394 686.385 228.662L719.644 206.439ZM782 412C782 338.821 760.3 267.285 719.644 206.439L686.385 228.662C722.646 282.93 742 346.732 742 412H782ZM587 432L762 432L762 392L587 392L587 432ZM540.878 325.887C557.91 351.376 567 381.344 567 412H607C607 373.433 595.564 335.732 574.137 303.664L540.878 325.887ZM471.316 268.799C499.639 280.53 523.846 300.397 540.878 325.887L574.137 303.664C552.71 271.596 522.255 246.603 486.623 231.844L471.316 268.799ZM381.761 259.978C411.828 253.998 442.994 257.067 471.316 268.799L486.623 231.844C450.992 217.085 411.784 213.223 373.958 220.747L381.761 259.978ZM302.399 302.399C324.076 280.721 351.694 265.959 381.761 259.978L373.958 220.747C336.131 228.271 301.386 246.843 274.114 274.114L302.399 302.399ZM259.978 381.761C265.959 351.694 280.721 324.076 302.399 302.399L274.114 274.114C246.843 301.386 228.271 336.131 220.747 373.958L259.978 381.761ZM412 742C353.948 742 297.056 726.689 247 697.789L227 732.43C283.123 764.833 346.912 782 412 782V742ZM217 715.109L217 937L257 937L257 715.109L217 715.109ZM217 937C217 975.567 228.437 1013.27 249.863 1045.34L283.122 1023.11C266.091 997.624 257 967.656 257 937L217 937ZM249.863 1045.34C271.29 1077.4 301.745 1102.4 337.377 1117.16L352.684 1080.2C324.361 1068.47 300.154 1048.6 283.122 1023.11L249.863 1045.34ZM337.377 1117.16C373.008 1131.92 412.216 1135.78 450.043 1128.25L442.239 1089.02C412.172 1095 381.007 1091.93 352.684 1080.2L337.377 1117.16ZM450.043 1128.25C487.869 1120.73 522.615 1102.16 549.886 1074.89L521.602 1046.6C499.924 1068.28 472.306 1083.04 442.239 1089.02L450.043 1128.25ZM549.886 1074.89C577.157 1047.61 595.729 1012.87 603.253 975.043L564.022 967.239C558.041 997.306 543.279 1024.92 521.601 1046.6L549.886 1074.89ZM603.253 975.043C610.777 937.216 606.916 898.008 592.157 862.377L555.201 877.684C566.933 906.007 570.002 937.172 564.022 967.239L603.253 975.043ZM592.157 862.377C577.397 826.745 552.404 796.29 520.336 774.863L498.113 808.122C523.603 825.154 543.47 849.362 555.201 877.684L592.157 862.377ZM520.336 774.863C488.269 753.437 450.567 742 412 742L412 782C442.656 782 472.624 791.091 498.113 808.122L520.336 774.863Z" fill="white" fill-opacity="0.01" mask="url(#path-2-outside-1_959_2)"/>
</g>
<g filter="url(#filter1_d_959_2)">
<path fill-rule="evenodd" clip-rule="evenodd" d="M240.363 377.859C238.115 389.157 237 400.592 237 412V412.101C237.013 434.938 241.497 457.666 250.321 478.97C263.567 510.947 285.997 538.278 314.775 557.507C343.554 576.737 377.388 587 412 587H1000V762H715.109C722.719 775.181 729.489 788.893 735.358 803.061C761.849 867.015 768.78 937.388 755.275 1005.28C741.77 1073.18 708.436 1135.54 659.487 1184.49C610.539 1233.44 548.175 1266.77 480.282 1280.27C412.388 1293.78 342.015 1286.85 278.061 1260.36C214.107 1233.87 159.444 1189.01 120.986 1131.45C82.5271 1073.89 62 1006.22 62 937L62.0001 937L62.0001 412.265C61.9826 389.361 64.2135 366.401 68.7253 343.719C82.2301 275.825 115.564 213.461 164.513 164.513C213.461 115.564 275.825 82.2301 343.719 68.7253C411.612 55.2205 481.985 62.1517 545.939 88.6423C609.893 115.133 664.556 159.993 703.014 217.551C741.473 275.108 762 342.777 762 412L587 412C587 377.388 576.737 343.554 557.507 314.775C538.278 285.997 510.947 263.567 478.97 250.321C446.993 237.076 411.806 233.61 377.859 240.363C343.913 247.115 312.731 263.782 288.256 288.256C263.782 312.731 247.115 343.913 240.363 377.859ZM412 762C350.43 762 290.089 745.761 237 715.109L237 937C237 971.612 247.264 1005.45 266.493 1034.22C285.722 1063 313.053 1085.43 345.03 1098.68C377.007 1111.92 412.194 1115.39 446.141 1108.64C480.087 1101.89 511.269 1085.22 535.744 1060.74C560.218 1036.27 576.885 1005.09 583.637 971.141C590.39 937.194 586.924 902.008 573.679 870.03C560.434 838.053 538.003 810.722 509.225 791.493C480.446 772.264 446.612 762 412 762Z" fill="#F5F5F5" fill-opacity="0.75" shape-rendering="crispEdges"/>
</g>
</g>
<defs>
<filter id="filter0_b_959_2" x="-158" y="-158" width="1378" height="1665" filterUnits="userSpaceOnUse" color-interpolation-filters="sRGB">
<feFlood flood-opacity="0" result="BackgroundImageFix"/>
<feGaussianBlur in="BackgroundImageFix" stdDeviation="100"/>
<feComposite in2="SourceAlpha" operator="in" result="effect1_backgroundBlur_959_2"/>
<feBlend mode="normal" in="SourceGraphic" in2="effect1_backgroundBlur_959_2" result="shape"/>
</filter>
<filter id="filter1_d_959_2" x="47" y="47" width="968" height="1255" filterUnits="userSpaceOnUse" color-interpolation-filters="sRGB">
<feFlood flood-opacity="0" result="BackgroundImageFix"/>
<feColorMatrix in="SourceAlpha" type="matrix" values="0 0 0 0 0 0 0 0 0 0 0 0 0 0 0 0 0 0 127 0" result="hardAlpha"/>
<feOffset/>
<feGaussianBlur stdDeviation="7.5"/>
<feComposite in2="hardAlpha" operator="out"/>
<feColorMatrix type="matrix" values="0 0 0 0 0.0823529 0 0 0 0 0.0823529 0 0 0 0 0.0823529 0 0 0 0.56 0"/>
<feBlend mode="normal" in2="BackgroundImageFix" result="effect1_dropShadow_959_2"/>
<feBlend mode="normal" in="SourceGraphic" in2="effect1_dropShadow_959_2" result="shape"/>
</filter>
<linearGradient id="paint0_linear_959_2" x1="207.2" y1="500.132" x2="207.2" y2="1914.53" gradientUnits="userSpaceOnUse">
<stop stop-color="#00A2E9"/>
<stop offset="0.33" stop-color="#FEF301"/>
<stop offset="0.667" stop-color="#ED1A25"/>
<stop offset="1" stop-color="#23B14D"/>
</linearGradient>
<clipPath id="clip0_959_2">
<rect width="1000" height="1000" fill="white"/>
</clipPath>
</defs>
</svg>
