<svg width="3500" height="1250" viewBox="0 0 3500 1250" fill="none" xmlns="http://www.w3.org/2000/svg">
<path fill-rule="evenodd" clip-rule="evenodd" d="M236.108 519.867C277.22 547.338 325.555 562 375 562C399.723 562 423.89 569.331 444.446 583.066C465.003 596.802 481.024 616.324 490.485 639.165C499.946 662.005 502.421 687.139 497.598 711.386C492.775 735.634 480.87 757.907 463.389 775.388C445.907 792.87 423.634 804.775 399.387 809.598C375.139 814.421 350.006 811.946 327.165 802.485C304.324 793.024 284.802 777.003 271.067 756.447C257.331 735.89 250 711.723 250 687L125 687.001C125 736.446 139.663 784.781 167.133 825.893C194.603 867.005 233.648 899.048 279.33 917.97C325.011 936.892 375.278 941.843 423.773 932.196C472.268 922.55 516.814 898.74 551.777 863.777C586.74 828.813 610.55 784.268 620.196 735.773C629.843 687.277 624.892 637.011 605.97 591.329C587.048 545.648 555.005 506.603 513.893 479.133C472.78 451.662 424.445 437 375 437C350.277 437 326.11 429.669 305.554 415.934C284.998 402.199 268.976 382.676 259.515 359.836C250.054 336.995 247.579 311.861 252.402 287.614C257.225 263.366 269.13 241.093 286.612 223.612C304.093 206.13 326.366 194.225 350.614 189.402C374.861 184.579 399.995 187.054 422.836 196.515C445.676 205.976 465.199 221.998 478.934 242.554C492.669 263.11 500 287.277 500 312L625 312C625 262.555 610.338 214.22 582.868 173.108C555.397 131.995 516.353 99.9522 470.671 81.0302C424.989 62.1083 374.723 57.1575 326.228 66.8038C277.732 76.4501 233.187 100.26 198.223 135.223C163.26 170.187 139.45 214.732 129.804 263.228C120.157 311.723 125.108 361.989 144.03 407.671C162.952 453.352 194.995 492.397 236.108 519.867Z" fill="#151515"/>
<path fill-rule="evenodd" clip-rule="evenodd" d="M675 62H800V437H1050V62H1175V437H1225V562H1175V937H1050V562H800V937H675V62Z" fill="#151515"/>
<path fill-rule="evenodd" clip-rule="evenodd" d="M1225 312C1225 262.555 1239.66 214.22 1267.13 173.108C1294.6 131.995 1333.65 99.9521 1379.33 81.0302C1425.01 62.1083 1475.28 57.1575 1523.77 66.8038C1572.27 76.4501 1616.81 100.26 1651.78 135.223C1686.74 170.187 1710.55 214.732 1720.2 263.228C1729.84 311.723 1724.89 361.99 1705.97 407.671C1687.05 453.353 1655 492.397 1613.89 519.868C1572.78 547.338 1524.45 562 1475 562H1350V937H1225V312ZM1350 437H1475C1499.72 437 1523.89 429.669 1544.45 415.934C1565 402.199 1581.02 382.676 1590.48 359.836C1599.95 336.995 1602.42 311.861 1597.6 287.614C1592.78 263.366 1580.87 241.093 1563.39 223.612C1545.91 206.13 1523.63 194.225 1499.39 189.402C1475.14 184.579 1450.01 187.054 1427.16 196.515C1404.32 205.976 1384.8 221.998 1371.07 242.554C1357.33 263.11 1350 287.277 1350 312V437Z" fill="#151515"/>
<path fill-rule="evenodd" clip-rule="evenodd" d="M1900 62H1775V937H1900H2325V812H1900V62Z" fill="#151515"/>
<path fill-rule="evenodd" clip-rule="evenodd" d="M2398.22 135.223C2351.34 182.107 2325 245.696 2325 312V937H2450V562H2700V937H2825V312L2700 312L2825 312C2825 245.696 2798.66 182.107 2751.78 135.223C2704.89 88.3392 2641.3 62 2575 62C2508.7 62 2445.11 88.3392 2398.22 135.223ZM2700 437H2450V312C2450 278.848 2463.17 247.054 2486.61 223.612C2510.05 200.17 2541.85 187 2575 187C2608.15 187 2639.95 200.17 2663.39 223.612C2686.83 247.054 2700 278.848 2700 312V437Z" fill="#151515"/>
<path fill-rule="evenodd" clip-rule="evenodd" d="M2875 312C2875 262.555 2889.66 214.22 2917.13 173.108C2944.6 131.995 2983.65 99.9521 3029.33 81.0302C3075.01 62.1083 3125.28 57.1575 3173.77 66.8038C3222.27 76.4501 3266.81 100.26 3301.78 135.223C3336.74 170.187 3360.55 214.732 3370.2 263.228C3379.84 311.723 3374.89 361.99 3355.97 407.671C3337.05 453.353 3305 492.397 3263.89 519.868C3222.78 547.338 3174.45 562 3125 562L3000 562V937H2875V312ZM3000 437L3125 437C3149.72 437 3173.89 429.669 3194.45 415.934C3215 402.199 3231.02 382.676 3240.48 359.836C3249.95 336.995 3252.42 311.861 3247.6 287.614C3242.78 263.366 3230.87 241.093 3213.39 223.612C3195.91 206.13 3173.63 194.225 3149.39 189.402C3125.14 184.579 3100.01 187.054 3077.16 196.515C3054.32 205.976 3034.8 221.998 3021.07 242.554C3007.33 263.11 3000 287.277 3000 312V437Z" fill="#151515"/>
<path d="M552.091 1068.56C551.097 1065.11 549.7 1062.05 547.901 1059.4C546.101 1056.7 543.9 1054.43 541.295 1052.58C538.739 1050.69 535.803 1049.24 532.489 1048.25C529.222 1047.26 525.599 1046.76 521.622 1046.76C514.188 1046.76 507.654 1048.61 502.02 1052.3C496.433 1055.99 492.077 1061.37 488.952 1068.42C485.827 1075.43 484.264 1084 484.264 1094.13C484.264 1104.26 485.803 1112.88 488.881 1119.98C491.958 1127.09 496.314 1132.51 501.949 1136.25C507.583 1139.94 514.236 1141.79 521.906 1141.79C528.866 1141.79 534.809 1140.56 539.733 1138.09C544.705 1135.58 548.492 1132.06 551.097 1127.51C553.748 1122.97 555.074 1117.59 555.074 1111.39L561.324 1112.31H523.824V1089.16H584.69V1107.48C584.69 1120.27 581.991 1131.25 576.594 1140.44C571.196 1149.58 563.762 1156.63 554.293 1161.6C544.823 1166.53 533.98 1168.99 521.764 1168.99C508.128 1168.99 496.149 1165.98 485.827 1159.97C475.505 1153.91 467.455 1145.31 461.679 1134.19C455.95 1123.01 453.085 1109.76 453.085 1094.41C453.085 1082.62 454.79 1072.11 458.199 1062.88C461.655 1053.6 466.485 1045.74 472.688 1039.3C478.89 1032.86 486.111 1027.96 494.349 1024.6C502.588 1021.24 511.513 1019.56 521.125 1019.56C529.364 1019.56 537.034 1020.76 544.136 1023.18C551.239 1025.55 557.536 1028.91 563.028 1033.26C568.568 1037.62 573.09 1042.8 576.594 1048.82C580.098 1054.78 582.347 1061.37 583.341 1068.56H552.091ZM728.369 1167H695.415L745.628 1021.55H785.259L835.401 1167H802.446L766.011 1054.78H764.875L728.369 1167ZM726.31 1109.83H804.151V1133.83H726.31V1109.83ZM952.908 1021.55H990.834L1030.89 1119.27H1032.6L1072.65 1021.55H1110.58V1167H1080.75V1072.33H1079.54L1041.9 1166.29H1021.59L983.945 1071.97H982.737V1167H952.908V1021.55ZM1235.92 1167V1021.55H1333.93V1046.9H1266.67V1081.56H1328.88V1106.91H1266.67V1141.64H1334.21V1167H1235.92ZM1683.57 1063.38C1683 1057.65 1680.57 1053.2 1676.26 1050.03C1671.95 1046.85 1666.1 1045.27 1658.71 1045.27C1653.69 1045.27 1649.46 1045.98 1646 1047.4C1642.54 1048.77 1639.89 1050.69 1638.05 1053.15C1636.25 1055.61 1635.35 1058.41 1635.35 1061.53C1635.25 1064.14 1635.8 1066.41 1636.98 1068.35C1638.21 1070.29 1639.89 1071.97 1642.02 1073.39C1644.15 1074.77 1646.62 1075.97 1649.41 1077.01C1652.2 1078.01 1655.19 1078.86 1658.36 1079.57L1671.43 1082.7C1677.77 1084.12 1683.6 1086.01 1688.9 1088.38C1694.2 1090.75 1698.79 1093.66 1702.68 1097.11C1706.56 1100.57 1709.57 1104.64 1711.7 1109.33C1713.87 1114.02 1714.99 1119.39 1715.03 1125.45C1714.99 1134.35 1712.71 1142.07 1708.22 1148.61C1703.77 1155.09 1697.33 1160.13 1688.9 1163.73C1680.52 1167.28 1670.41 1169.06 1658.57 1169.06C1646.83 1169.06 1636.6 1167.26 1627.89 1163.66C1619.23 1160.06 1612.45 1154.74 1607.58 1147.68C1602.75 1140.58 1600.21 1131.8 1599.98 1121.33H1629.74C1630.07 1126.21 1631.46 1130.28 1633.93 1133.55C1636.44 1136.77 1639.77 1139.21 1643.94 1140.86C1648.16 1142.47 1652.91 1143.28 1658.22 1143.28C1663.42 1143.28 1667.95 1142.52 1671.78 1141.01C1675.66 1139.49 1678.67 1137.38 1680.8 1134.68C1682.93 1131.99 1684 1128.88 1684 1125.38C1684 1122.11 1683.03 1119.37 1681.09 1117.14C1679.19 1114.92 1676.4 1113.02 1672.71 1111.46C1669.06 1109.9 1664.58 1108.48 1659.28 1107.2L1643.44 1103.22C1631.18 1100.24 1621.5 1095.57 1614.4 1089.23C1607.29 1082.89 1603.77 1074.34 1603.81 1063.59C1603.77 1054.78 1606.11 1047.09 1610.84 1040.51C1615.63 1033.93 1622.18 1028.79 1630.52 1025.1C1638.85 1021.4 1648.32 1019.56 1658.93 1019.56C1669.72 1019.56 1679.14 1021.4 1687.19 1025.1C1695.29 1028.79 1701.59 1033.93 1706.09 1040.51C1710.58 1047.09 1712.9 1054.71 1713.05 1063.38H1683.57ZM1830.18 1046.9V1021.55H1949.64V1046.9H1905.11V1167H1874.71V1046.9H1830.18ZM2159.16 1021.55H2189.91V1116.01C2189.91 1126.61 2187.38 1135.89 2182.31 1143.85C2177.29 1151.8 2170.26 1158 2161.22 1162.45C2152.17 1166.86 2141.64 1169.06 2129.61 1169.06C2117.54 1169.06 2106.98 1166.86 2097.94 1162.45C2088.89 1158 2081.86 1151.8 2076.84 1143.85C2071.82 1135.89 2069.31 1126.61 2069.31 1116.01V1021.55H2100.07V1113.38C2100.07 1118.92 2101.27 1123.84 2103.69 1128.15C2106.15 1132.46 2109.61 1135.84 2114.06 1138.31C2118.51 1140.77 2123.69 1142 2129.61 1142C2135.58 1142 2140.76 1140.77 2145.17 1138.31C2149.62 1135.84 2153.05 1132.46 2155.46 1128.15C2157.93 1123.84 2159.16 1118.92 2159.16 1113.38V1021.55ZM2366.77 1167H2315.21V1021.55H2367.2C2381.83 1021.55 2394.43 1024.46 2404.99 1030.28C2415.54 1036.06 2423.66 1044.37 2429.35 1055.21C2435.08 1066.05 2437.94 1079.03 2437.94 1094.13C2437.94 1109.28 2435.08 1122.3 2429.35 1133.19C2423.66 1144.08 2415.5 1152.44 2404.84 1158.26C2394.24 1164.09 2381.55 1167 2366.77 1167ZM2345.97 1140.65H2365.5C2374.59 1140.65 2382.23 1139.04 2388.44 1135.82C2394.69 1132.55 2399.37 1127.51 2402.5 1120.69C2405.67 1113.83 2407.26 1104.97 2407.26 1094.13C2407.26 1083.38 2405.67 1074.6 2402.5 1067.78C2399.37 1060.96 2394.71 1055.94 2388.51 1052.72C2382.31 1049.5 2374.66 1047.89 2365.57 1047.89H2345.97V1140.65ZM2591.47 1021.55V1167H2560.72V1021.55H2591.47ZM2850.44 1094.27C2850.44 1110.13 2847.43 1123.63 2841.42 1134.76C2835.45 1145.88 2827.31 1154.38 2816.99 1160.25C2806.71 1166.08 2795.16 1168.99 2782.33 1168.99C2769.4 1168.99 2757.8 1166.05 2747.53 1160.18C2737.25 1154.31 2729.13 1145.81 2723.17 1134.68C2717.2 1123.56 2714.22 1110.09 2714.22 1094.27C2714.22 1078.41 2717.2 1064.92 2723.17 1053.79C2729.13 1042.66 2737.25 1034.19 2747.53 1028.36C2757.8 1022.49 2769.4 1019.56 2782.33 1019.56C2795.16 1019.56 2806.71 1022.49 2816.99 1028.36C2827.31 1034.19 2835.45 1042.66 2841.42 1053.79C2847.43 1064.92 2850.44 1078.41 2850.44 1094.27ZM2819.26 1094.27C2819.26 1084 2817.72 1075.33 2814.64 1068.28C2811.61 1061.22 2807.33 1055.87 2801.79 1052.23C2796.25 1048.58 2789.76 1046.76 2782.33 1046.76C2774.9 1046.76 2768.41 1048.58 2762.87 1052.23C2757.33 1055.87 2753.02 1061.22 2749.94 1068.28C2746.91 1075.33 2745.4 1084 2745.4 1094.27C2745.4 1104.55 2746.91 1113.21 2749.94 1120.27C2753.02 1127.32 2757.33 1132.67 2762.87 1136.32C2768.41 1139.96 2774.9 1141.79 2782.33 1141.79C2789.76 1141.79 2796.25 1139.96 2801.79 1136.32C2807.33 1132.67 2811.61 1127.32 2814.64 1120.27C2817.72 1113.21 2819.26 1104.55 2819.26 1094.27ZM3052.13 1063.38C3051.56 1057.65 3049.12 1053.2 3044.81 1050.03C3040.5 1046.85 3034.65 1045.27 3027.27 1045.27C3022.25 1045.27 3018.01 1045.98 3014.56 1047.4C3011.1 1048.77 3008.45 1050.69 3006.6 1053.15C3004.8 1055.61 3003.9 1058.41 3003.9 1061.53C3003.81 1064.14 3004.35 1066.41 3005.54 1068.35C3006.77 1070.29 3008.45 1071.97 3010.58 1073.39C3012.71 1074.77 3015.17 1075.97 3017.96 1077.01C3020.76 1078.01 3023.74 1078.86 3026.91 1079.57L3039.98 1082.7C3046.33 1084.12 3052.15 1086.01 3057.45 1088.38C3062.76 1090.75 3067.35 1093.66 3071.23 1097.11C3075.11 1100.57 3078.12 1104.64 3080.25 1109.33C3082.43 1114.02 3083.54 1119.39 3083.59 1125.45C3083.54 1134.35 3081.27 1142.07 3076.77 1148.61C3072.32 1155.09 3065.88 1160.13 3057.45 1163.73C3049.07 1167.28 3038.96 1169.06 3027.13 1169.06C3015.38 1169.06 3005.16 1167.26 2996.44 1163.66C2987.78 1160.06 2981.01 1154.74 2976.13 1147.68C2971.3 1140.58 2968.77 1131.8 2968.53 1121.33H2998.29C2998.62 1126.21 3000.02 1130.28 3002.48 1133.55C3004.99 1136.77 3008.33 1139.21 3012.5 1140.86C3016.71 1142.47 3021.47 1143.28 3026.77 1143.28C3031.98 1143.28 3036.5 1142.52 3040.34 1141.01C3044.22 1139.49 3047.23 1137.38 3049.36 1134.68C3051.49 1131.99 3052.55 1128.88 3052.55 1125.38C3052.55 1122.11 3051.58 1119.37 3049.64 1117.14C3047.75 1114.92 3044.95 1113.02 3041.26 1111.46C3037.61 1109.9 3033.14 1108.48 3027.84 1107.2L3012 1103.22C2999.74 1100.24 2990.05 1095.57 2982.95 1089.23C2975.85 1082.89 2972.32 1074.34 2972.37 1063.59C2972.32 1054.78 2974.66 1047.09 2979.4 1040.51C2984.18 1033.93 2990.74 1028.79 2999.07 1025.1C3007.41 1021.4 3016.88 1019.56 3027.48 1019.56C3038.28 1019.56 3047.7 1021.4 3055.75 1025.1C3063.85 1028.79 3070.14 1033.93 3074.64 1040.51C3079.14 1047.09 3081.46 1054.71 3081.6 1063.38H3052.13Z" fill="#151515"/>
</svg>
