<svg width="1000" height="1000" viewBox="0 0 1000 1000" fill="none" xmlns="http://www.w3.org/2000/svg">
<g clip-path="url(#clip0_959_28)">
<rect width="1000" height="1000" rx="500" fill="#151515"/>
<circle cx="500.107" cy="500.106" r="500" transform="rotate(-45 500.107 500.106)" fill="url(#paint0_linear_959_28)" fill-opacity="0.5"/>
<g filter="url(#filter0_b_959_28)">
<mask id="path-3-outside-1_959_28" maskUnits="userSpaceOnUse" x="144" y="121" width="871" height="1128" fill="black">
<rect fill="white" x="144" y="121" width="871" height="1128"/>
<path fill-rule="evenodd" clip-rule="evenodd" d="M473 762.999C417.722 762.823 363.583 748.083 316 720.42V920C316.049 950.915 325.254 981.128 342.459 1006.84C359.71 1032.61 384.23 1052.7 412.918 1064.57C441.606 1076.43 473.174 1079.54 503.629 1073.49C534.084 1067.44 562.058 1052.51 584.015 1030.59C605.972 1008.67 620.925 980.737 626.983 950.33C633.041 919.924 629.932 888.407 618.049 859.764C606.166 831.122 586.043 806.641 560.224 789.417C535.102 772.658 505.684 763.501 475.509 763.02H473V763V762.999ZM473 606.247C442.297 606.052 412.316 596.872 386.775 579.833C360.957 562.609 340.834 538.128 328.951 509.486C317.068 480.843 313.959 449.326 320.016 418.92C326.074 388.513 341.027 360.583 362.984 338.661C384.941 316.739 412.915 301.81 443.371 295.762C473.826 289.714 505.393 292.818 534.081 304.682C562.769 316.546 587.289 336.637 604.54 362.415C621.792 388.192 631 418.498 631 449.5H788C788 387.496 769.584 326.884 735.081 275.329C700.578 223.774 651.538 183.592 594.162 159.864C536.786 136.136 473.651 129.927 412.741 142.024C351.831 154.12 295.882 183.978 251.968 227.822C208.054 271.666 178.149 327.526 166.033 388.339C162.034 408.413 160.032 428.729 160 449H160V449.125C159.999 449.374 159.999 449.622 160 449.871V919.75H158.999C158.999 981.754 177.415 1042.37 211.918 1093.92C246.421 1145.48 295.461 1185.66 352.837 1209.39C410.213 1233.11 473.348 1239.32 534.258 1227.23C595.168 1215.13 651.117 1185.27 695.031 1141.43C738.945 1097.58 768.85 1041.72 780.966 980.911C793.082 920.098 786.864 857.063 763.098 799.779C757.836 787.095 751.766 774.82 744.943 763.02H999.25V606.243H473V606.247Z"/>
</mask>
<path fill-rule="evenodd" clip-rule="evenodd" d="M473 762.999C417.722 762.823 363.583 748.083 316 720.42V920C316.049 950.915 325.254 981.128 342.459 1006.84C359.71 1032.61 384.23 1052.7 412.918 1064.57C441.606 1076.43 473.174 1079.54 503.629 1073.49C534.084 1067.44 562.058 1052.51 584.015 1030.59C605.972 1008.67 620.925 980.737 626.983 950.33C633.041 919.924 629.932 888.407 618.049 859.764C606.166 831.122 586.043 806.641 560.224 789.417C535.102 772.658 505.684 763.501 475.509 763.02H473V763V762.999ZM473 606.247C442.297 606.052 412.316 596.872 386.775 579.833C360.957 562.609 340.834 538.128 328.951 509.486C317.068 480.843 313.959 449.326 320.016 418.92C326.074 388.513 341.027 360.583 362.984 338.661C384.941 316.739 412.915 301.81 443.371 295.762C473.826 289.714 505.393 292.818 534.081 304.682C562.769 316.546 587.289 336.637 604.54 362.415C621.792 388.192 631 418.498 631 449.5H788C788 387.496 769.584 326.884 735.081 275.329C700.578 223.774 651.538 183.592 594.162 159.864C536.786 136.136 473.651 129.927 412.741 142.024C351.831 154.12 295.882 183.978 251.968 227.822C208.054 271.666 178.149 327.526 166.033 388.339C162.034 408.413 160.032 428.729 160 449H160V449.125C159.999 449.374 159.999 449.622 160 449.871V919.75H158.999C158.999 981.754 177.415 1042.37 211.918 1093.92C246.421 1145.48 295.461 1185.66 352.837 1209.39C410.213 1233.11 473.348 1239.32 534.258 1227.23C595.168 1215.13 651.117 1185.27 695.031 1141.43C738.945 1097.58 768.85 1041.72 780.966 980.911C793.082 920.098 786.864 857.063 763.098 799.779C757.836 787.095 751.766 774.82 744.943 763.02H999.25V606.243H473V606.247Z" fill="white" fill-opacity="0.01"/>
<path d="M316 720.42L323.539 707.453L301 694.35V720.42H316ZM473 762.999H488V748.046L473.047 747.999L473 762.999ZM316 920H301V920.012L301 920.024L316 920ZM342.459 1006.84L354.925 998.493L354.925 998.493L342.459 1006.84ZM412.918 1064.57L418.651 1050.71L418.651 1050.71L412.918 1064.57ZM626.983 950.33L641.694 953.261L641.694 953.261L626.983 950.33ZM618.049 859.764L604.194 865.512L604.194 865.512L618.049 859.764ZM560.224 789.417L568.548 776.939L568.548 776.939L560.224 789.417ZM475.509 763.02L475.748 748.022L475.629 748.02H475.509V763.02ZM473 763.02H458V778.02H473V763.02ZM473 606.247L472.904 621.247L488 621.343V606.247H473ZM386.775 579.833L395.1 567.355L395.1 567.355L386.775 579.833ZM328.951 509.486L342.806 503.738L342.806 503.738L328.951 509.486ZM320.016 418.92L305.306 415.989L305.306 415.989L320.016 418.92ZM362.984 338.661L352.386 328.046L352.386 328.046L362.984 338.661ZM443.371 295.762L446.292 310.475L446.292 310.475L443.371 295.762ZM534.081 304.682L539.813 290.821L539.813 290.821L534.081 304.682ZM604.54 362.415L592.074 370.757L592.075 370.757L604.54 362.415ZM631 449.5H616V464.5H631V449.5ZM788 449.5V464.5H803V449.5H788ZM735.081 275.329L747.547 266.986L747.547 266.986L735.081 275.329ZM594.162 159.864L599.895 146.002L594.162 159.864ZM412.741 142.024L409.819 127.311L412.741 142.024ZM166.033 388.339L180.744 391.27L180.744 391.27L166.033 388.339ZM160 449V464H174.976L175 449.024L160 449ZM160 449V434H145V449H160ZM160 449.125L175 449.143L175 449.134V449.125H160ZM160 449.871H175V449.862L175 449.853L160 449.871ZM160 919.75V934.75H175V919.75H160ZM158.999 919.75V904.75H144L143.999 919.75L158.999 919.75ZM211.918 1093.92L224.384 1085.58L224.384 1085.58L211.918 1093.92ZM352.837 1209.39L347.104 1223.25L347.104 1223.25L352.837 1209.39ZM534.258 1227.23L537.18 1241.94L537.18 1241.94L534.258 1227.23ZM695.031 1141.43L684.433 1130.81L684.433 1130.81L695.031 1141.43ZM763.098 799.779L749.243 805.527L749.243 805.527L763.098 799.779ZM744.943 763.02V748.02H718.944L731.958 770.528L744.943 763.02ZM999.25 763.02V778.02H1014.25V763.02H999.25ZM999.25 606.243H1014.25V591.243H999.25V606.243ZM473 606.243V591.243H458V606.243H473ZM308.461 733.388C358.316 762.372 415.038 777.814 472.952 777.998L473.047 747.999C420.406 747.831 368.85 733.794 323.539 707.453L308.461 733.388ZM331 920V720.42H301V920H331ZM354.925 998.493C339.367 975.245 331.044 947.928 331 919.976L301 920.024C301.054 953.903 311.141 987.01 329.993 1015.18L354.925 998.493ZM418.651 1050.71C392.701 1039.97 370.525 1021.8 354.925 998.493L329.993 1015.18C348.895 1043.42 375.76 1065.43 407.186 1078.43L418.651 1050.71ZM500.707 1058.78C473.157 1064.25 444.601 1061.44 418.651 1050.71L407.186 1078.43C438.612 1091.43 473.19 1094.83 506.55 1088.2L500.707 1058.78ZM573.417 1019.97C553.56 1039.8 528.257 1053.3 500.707 1058.78L506.55 1088.2C539.911 1081.58 570.557 1065.22 594.613 1041.2L573.417 1019.97ZM612.272 947.4C606.795 974.892 593.274 1000.15 573.417 1019.97L594.613 1041.2C618.67 1017.19 635.055 986.582 641.694 953.261L612.272 947.4ZM604.194 865.512C614.938 891.411 617.749 919.907 612.272 947.4L641.694 953.261C648.332 919.94 644.925 885.403 631.904 854.016L604.194 865.512ZM551.9 801.895C575.252 817.474 593.449 839.614 604.194 865.512L631.904 854.016C618.882 822.63 596.833 795.808 568.548 776.939L551.9 801.895ZM475.27 778.018C502.567 778.454 529.177 786.737 551.9 801.895L568.548 776.939C541.026 758.579 508.802 748.549 475.748 748.022L475.27 778.018ZM475.509 748.02H473V778.02H475.509V748.02ZM488 763.02V763H458V763.02H488ZM488 763V762.999H458V763H488ZM473.095 591.247C445.32 591.071 418.201 582.766 395.1 567.355L378.451 592.311C406.432 610.978 439.273 621.033 472.904 621.247L473.095 591.247ZM395.1 567.355C371.747 551.776 353.55 529.636 342.806 503.738L315.096 515.234C328.117 546.62 350.166 573.442 378.451 592.311L395.1 567.355ZM342.806 503.738C332.061 477.839 329.25 449.343 334.727 421.851L305.306 415.989C298.667 449.31 302.074 483.848 315.096 515.234L342.806 503.738ZM334.727 421.851C340.205 394.358 353.725 369.102 373.582 349.276L352.386 328.046C328.329 352.064 311.944 382.668 305.306 415.989L334.727 421.851ZM373.582 349.276C393.44 329.45 418.743 315.946 446.292 310.475L440.449 281.049C407.088 287.675 376.442 304.028 352.386 328.046L373.582 349.276ZM446.292 310.475C473.842 305.003 502.398 307.812 528.349 318.543L539.813 290.821C508.387 277.824 473.809 274.424 440.449 281.049L446.292 310.475ZM528.349 318.543C554.298 329.275 576.474 347.447 592.074 370.757L617.006 354.072C598.104 325.827 571.24 303.817 539.813 290.821L528.349 318.543ZM592.075 370.757C607.675 394.067 616 421.47 616 449.5H646C646 415.526 635.909 382.317 617.006 354.072L592.075 370.757ZM631 464.5H788V434.5H631V464.5ZM803 449.5C803 384.524 783.701 321.008 747.547 266.986L722.615 283.672C755.467 332.759 773 390.468 773 449.5H803ZM747.547 266.986C711.393 212.964 660.009 170.863 599.895 146.002L588.43 173.725C643.068 196.321 689.764 234.584 722.615 283.672L747.547 266.986ZM599.895 146.002C539.781 121.142 473.635 114.638 409.819 127.311L415.663 156.737C473.668 145.217 533.792 151.13 588.43 173.725L599.895 146.002ZM409.819 127.311C346.004 139.985 287.383 171.267 241.37 217.207L262.566 238.437C304.381 196.689 357.658 168.256 415.663 156.737L409.819 127.311ZM241.37 217.207C195.357 263.147 164.019 321.681 151.322 385.408L180.744 391.27C192.279 333.371 220.752 280.185 262.566 238.437L241.37 217.207ZM151.322 385.408C147.131 406.444 145.034 427.734 145 448.976L175 449.024C175.031 429.724 176.936 410.382 180.744 391.27L151.322 385.408ZM160 434H160V464H160V434ZM145 449V449.125H175V449H145ZM145 449.108C144.999 449.368 144.999 449.628 145 449.888L175 449.853C174.999 449.616 174.999 449.38 175 449.143L145 449.108ZM145 449.871V919.75H175V449.871H145ZM160 904.75H158.999V934.75H160V904.75ZM143.999 919.75C143.999 984.726 163.298 1048.24 199.452 1102.26L224.384 1085.58C191.532 1036.49 173.999 978.782 173.999 919.75L143.999 919.75ZM199.452 1102.26C235.606 1156.29 286.99 1198.39 347.104 1223.25L358.569 1195.52C303.931 1172.93 257.236 1134.67 224.384 1085.58L199.452 1102.26ZM347.104 1223.25C407.218 1248.11 473.365 1254.61 537.18 1241.94L531.336 1212.51C473.331 1224.03 413.207 1218.12 358.569 1195.52L347.104 1223.25ZM537.18 1241.94C600.995 1229.27 659.616 1197.98 705.629 1152.04L684.433 1130.81C642.618 1172.56 589.341 1200.99 531.336 1212.51L537.18 1241.94ZM705.629 1152.04C751.642 1106.1 782.981 1047.57 795.677 983.842L766.255 977.98C754.72 1035.88 726.247 1089.07 684.433 1130.81L705.629 1152.04ZM795.677 983.842C808.373 920.114 801.857 854.059 776.953 794.031L749.243 805.527C771.87 860.068 777.79 920.081 766.255 977.98L795.677 983.842ZM776.953 794.031C771.439 780.74 765.078 767.877 757.929 755.512L731.958 770.528C738.453 781.763 744.233 793.451 749.243 805.527L776.953 794.031ZM999.25 748.02H744.943V778.02H999.25V748.02ZM984.25 606.243V763.02H1014.25V606.243H984.25ZM473 621.243H999.25V591.243H473V621.243ZM488 606.247V606.243H458V606.247H488Z" fill="white" fill-opacity="0.01" mask="url(#path-3-outside-1_959_28)"/>
</g>
<g filter="url(#filter1_d_959_28)">
<path fill-rule="evenodd" clip-rule="evenodd" d="M473 762.999C417.722 762.823 363.583 748.083 316 720.42V920C316.049 950.915 325.254 981.128 342.459 1006.84C359.71 1032.61 384.23 1052.7 412.918 1064.57C441.606 1076.43 473.174 1079.54 503.629 1073.49C534.084 1067.44 562.058 1052.51 584.015 1030.59C605.972 1008.67 620.925 980.737 626.983 950.33C633.041 919.924 629.932 888.407 618.049 859.764C606.166 831.122 586.043 806.641 560.224 789.417C535.102 772.658 505.684 763.501 475.509 763.02H473V763V762.999ZM473 606.247C442.297 606.052 412.316 596.872 386.775 579.833C360.957 562.609 340.834 538.128 328.951 509.486C317.068 480.843 313.959 449.326 320.016 418.92C326.074 388.513 341.027 360.583 362.984 338.661C384.941 316.739 412.916 301.81 443.371 295.762C473.826 289.714 505.393 292.818 534.081 304.682C562.769 316.546 587.289 336.637 604.54 362.415C621.792 388.192 631 418.498 631 449.5H788C788 387.496 769.584 326.884 735.081 275.329C700.578 223.774 651.538 183.592 594.162 159.864C536.786 136.136 473.651 129.927 412.741 142.024C351.831 154.12 295.882 183.978 251.968 227.822C208.054 271.666 178.149 327.526 166.033 388.339C162.034 408.413 160.032 428.729 160 449H160V449.125C159.999 449.374 159.999 449.622 160 449.871V919.75H159C158.999 981.754 177.415 1042.37 211.918 1093.92C246.421 1145.48 295.461 1185.66 352.837 1209.39C410.213 1233.11 473.348 1239.32 534.258 1227.23C595.168 1215.13 651.117 1185.27 695.031 1141.43C738.945 1097.58 768.85 1041.72 780.966 980.911C793.082 920.098 786.864 857.063 763.098 799.779C757.836 787.095 751.766 774.82 744.943 763.02H999.25V606.243H473V606.247Z" fill="#F5F5F5" fill-opacity="0.75" shape-rendering="crispEdges"/>
</g>
</g>
<defs>
<filter id="filter0_b_959_28" x="43.9995" y="21" width="1070.25" height="1327.25" filterUnits="userSpaceOnUse" color-interpolation-filters="sRGB">
<feFlood flood-opacity="0" result="BackgroundImageFix"/>
<feGaussianBlur in="BackgroundImageFix" stdDeviation="50"/>
<feComposite in2="SourceAlpha" operator="in" result="effect1_backgroundBlur_959_28"/>
<feBlend mode="normal" in="SourceGraphic" in2="effect1_backgroundBlur_959_28" result="shape"/>
</filter>
<filter id="filter1_d_959_28" x="149" y="126" width="860.25" height="1117.25" filterUnits="userSpaceOnUse" color-interpolation-filters="sRGB">
<feFlood flood-opacity="0" result="BackgroundImageFix"/>
<feColorMatrix in="SourceAlpha" type="matrix" values="0 0 0 0 0 0 0 0 0 0 0 0 0 0 0 0 0 0 127 0" result="hardAlpha"/>
<feOffset/>
<feGaussianBlur stdDeviation="5"/>
<feComposite in2="hardAlpha" operator="out"/>
<feColorMatrix type="matrix" values="0 0 0 0 0.0823529 0 0 0 0 0.0823529 0 0 0 0 0.0823529 0 0 0 0.56 0"/>
<feBlend mode="normal" in2="BackgroundImageFix" result="effect1_dropShadow_959_28"/>
<feBlend mode="normal" in="SourceGraphic" in2="effect1_dropShadow_959_28" result="shape"/>
</filter>
<linearGradient id="paint0_linear_959_28" x1="500.107" y1="0.106445" x2="500.107" y2="1000.11" gradientUnits="userSpaceOnUse">
<stop stop-color="#00A2E9"/>
<stop offset="0.33" stop-color="#FEF301"/>
<stop offset="0.666" stop-color="#ED1A25"/>
<stop offset="1" stop-color="#23B14D"/>
</linearGradient>
<clipPath id="clip0_959_28">
<rect width="1000" height="1000" rx="500" fill="white"/>
</clipPath>
</defs>
</svg>
